# xmcd CD database file
#
# Track frame offsets:
#	150
#	20267
#	46661
#	60411
#	83124
#	113780
#	135023
#	161132
#	188939
#	209537
#	228927
#	252897
#	271504
#	297033
#
# Disc length: 4304 seconds
#
# Revision: 0
# Processed by: cddbd v1.5.2PL0 Copyright (c) Steve Scherf et al.
# Submitted via: cdripper 1,0,39,0213
#
DISCID=ad10ce0e
DTITLE=Diana Krall - The Very Best Of Diana Krall
DYEAR=1900
DGENRE=Jazz
TTITLE0=Diana Krall - S  Wonderful
TTITLE1=Diana Krall - Peel  Me  A  Grape
TTITLE2=Diana Krall - Pick  Yourself  Up
TTITLE3=Diana Krall - Frim  Fram  Sauce
TTITLE4=Diana Krall - You  Got  My  Head
TTITLE5=Diana Krall - The  Look  Of  Love
TTITLE6=Diana Krall - East  Of  The  Sun  (And  West  Of  The  Moon)
TTITLE7=Diana Krall - Ive  Got  You  Under  My  Skin
TTITLE8=Diana Krall - All  Or  Nothing  At  All
TTITLE9=Diana Krall - Only  The  Lonely
TTITLE10=Diana Krall - Lets  Face  The  Music  And  Dance
TTITLE11=Diana Krall - The  Heart  Of  Saturday  Night
TTITLE12=Diana Krall - Little  Girl  Blue
TTITLE13=Diana Krall - Fly  Me  To  The  Moon
EXTD=
EXTT0=
EXTT1=
EXTT2=
EXTT3=
EXTT4=
EXTT5=
EXTT6=
EXTT7=
EXTT8=
EXTT9=
EXTT10=
EXTT11=
EXTT12=
EXTT13=
PLAYORDER=
